<?xml version="1.0" standalone="no"?>
<!DOCTYPE svg PUBLIC "-//W3C//DTD SVG 20010904//EN"
 "http://www.w3.org/TR/2001/REC-SVG-20010904/DTD/svg10.dtd">
<svg version="1.0" xmlns="http://www.w3.org/2000/svg"
 width="900.000000pt" height="900.000000pt" viewBox="0 0 900.000000 900.000000"
 preserveAspectRatio="xMidYMid meet">
<metadata>
Created by potrace 1.15, written by Peter Selinger 2001-2017
</metadata>
<g transform="translate(0.000000,900.000000) scale(0.100000,-0.100000)"
fill="#000000" stroke="none">
<path d="M4240 8069 c-130 -9 -368 -42 -468 -65 -285 -64 -529 -139 -699 -215
-23 -11 -45 -19 -48 -19 -17 0 -352 -174 -445 -231 -146 -90 -392 -261 -430
-299 -3 -3 -32 -27 -65 -55 -104 -86 -353 -336 -449 -450 -247 -294 -468 -653
-601 -975 -14 -36 -32 -78 -40 -95 -14 -32 -95 -272 -115 -340 -34 -117 -74
-306 -99 -470 -80 -515 -41 -1133 103 -1610 8 -27 20 -68 26 -90 14 -48 67
-198 85 -240 7 -16 32 -75 55 -129 44 -106 117 -253 174 -351 19 -33 43 -73
52 -90 17 -30 161 -251 176 -270 4 -5 34 -44 65 -85 133 -176 382 -439 548
-579 50 -41 92 -78 95 -81 7 -8 143 -108 220 -162 74 -52 230 -149 305 -190
103 -57 355 -178 369 -178 8 0 17 -4 20 -9 3 -5 18 -12 33 -16 16 -3 42 -13
58 -20 37 -17 132 -51 200 -72 28 -9 59 -19 70 -24 43 -17 157 -46 340 -85
226 -49 550 -80 785 -76 710 14 1342 194 1945 555 131 79 390 269 505 370 145
129 351 342 482 500 46 55 238 332 297 427 79 130 221 421 284 585 236 615
306 1297 201 1950 -33 205 -47 270 -89 415 -21 69 -41 139 -45 155 -33 120
-143 385 -230 550 -128 245 -212 379 -357 570 -112 147 -162 204 -328 374
-287 294 -601 525 -975 718 -214 110 -489 219 -680 268 -30 7 -98 25 -150 38
-348 90 -775 125 -1180 96z m1665 -1039 c8 -16 20 -63 27 -105 10 -63 15 -75
31 -75 53 0 214 -57 298 -107 52 -30 169 -143 169 -163 0 -20 -95 -117 -162
-167 -40 -29 -78 -57 -84 -62 -6 -5 -14 -27 -17 -48 -13 -82 -100 -169 -191
-194 -86 -23 -193 10 -264 82 -55 56 -82 113 -83 178 -1 28 -6 54 -12 58 -19
12 -88 5 -105 -10 -9 -9 -39 -21 -65 -27 -51 -11 -122 -52 -131 -76 -3 -8 -20
-21 -38 -30 -44 -21 -78 -66 -89 -114 -5 -22 -20 -64 -34 -94 -16 -35 -25 -74
-26 -108 0 -29 -4 -62 -8 -72 -4 -11 -4 -38 1 -60 5 -23 13 -66 17 -96 8 -67
24 -93 70 -116 74 -38 73 -38 46 23 -74 165 -72 328 4 449 69 111 191 145 288
81 46 -31 63 -67 63 -134 0 -66 -17 -91 -75 -113 -32 -12 -91 -5 -113 12 -21
18 -35 -5 -40 -65 -8 -95 39 -147 132 -147 l44 0 22 68 c43 139 95 249 120
257 27 9 105 -12 188 -50 41 -19 76 -35 77 -35 1 0 15 19 30 43 41 62 76 97
99 97 52 0 185 -109 289 -235 24 -28 26 -29 44 -14 74 66 268 106 388 80 39
-8 42 -28 11 -98 -40 -91 -46 -134 -29 -206 17 -74 21 -168 10 -254 l-8 -63
43 0 c59 0 113 -17 145 -45 27 -22 27 -24 10 -43 -23 -25 -53 -106 -61 -168
-16 -115 -39 -213 -62 -262 -29 -64 -29 -66 -1 -81 31 -17 86 -92 93 -128 6
-28 3 -32 -24 -38 -53 -11 -104 -66 -157 -171 -27 -55 -53 -100 -57 -102 -5
-2 -8 -8 -8 -14 0 -6 -23 -48 -50 -94 l-50 -83 25 -37 c16 -24 25 -51 25 -75
0 -37 -2 -39 -30 -39 -47 0 -97 -32 -185 -116 -82 -78 -194 -163 -253 -191
-24 -11 -31 -20 -26 -32 15 -37 21 -82 15 -112 -6 -30 -10 -33 -81 -50 -41
-10 -100 -28 -130 -39 -115 -45 -176 -60 -245 -60 l-71 0 -2 -36 c-4 -60 -15
-71 -79 -80 -32 -5 -70 -8 -85 -8 -33 0 -32 4 -8 -66 11 -30 19 -70 20 -88 0
-47 15 -69 59 -92 48 -24 84 -31 123 -23 36 7 18 23 -27 23 -38 0 -48 7 -69
48 -16 31 -16 35 3 77 16 37 29 49 66 65 62 27 115 25 174 -5 73 -36 96 -75
95 -155 -1 -76 -17 -113 -70 -160 -50 -44 -93 -60 -156 -60 -72 0 -108 12
-179 59 l-61 41 -41 -22 c-45 -23 -113 -27 -160 -9 -21 8 -35 8 -55 -2 -15 -8
-54 -19 -87 -27 -33 -7 -81 -23 -107 -36 -83 -42 -148 -24 -148 40 l0 34 43
-15 c85 -30 182 3 242 81 48 63 51 201 6 265 -61 85 -225 161 -348 161 -64 0
-32 -17 45 -24 131 -11 235 -81 284 -193 35 -80 1 -182 -79 -234 -42 -27 -55
-30 -106 -27 -49 4 -63 9 -90 36 -25 25 -32 40 -32 71 0 69 53 103 95 61 23
-23 30 -25 30 -7 0 8 -11 24 -24 36 -20 19 -31 22 -61 17 -52 -10 -69 -42 -62
-117 5 -58 4 -61 -21 -70 -37 -14 -46 1 -50 84 -3 62 -1 77 20 107 27 40 79
70 123 70 67 0 145 -71 145 -131 0 -15 -10 -40 -23 -55 -19 -21 -31 -26 -68
-26 -40 1 -42 0 -25 -14 40 -29 115 -9 145 39 32 52 36 98 12 145 -30 58 -113
112 -174 112 -80 0 -173 -68 -250 -180 l-57 -85 16 -43 c20 -50 14 -61 -20
-38 -24 15 -26 15 -40 -6 -15 -21 -14 -24 16 -55 l31 -33 -27 -25 c-40 -37
-54 -32 -79 28 -12 28 -31 71 -43 94 -19 37 -20 46 -8 68 10 20 11 37 2 82
-10 49 -15 57 -46 70 -52 22 -249 63 -301 63 -44 0 -48 -2 -96 -62 -49 -61
-50 -63 -52 -137 -2 -96 -1 -91 -12 -91 -5 0 -17 21 -27 46 l-17 46 -19 -24
c-9 -12 -18 -29 -18 -35 0 -7 -11 -15 -24 -19 -25 -6 -46 -41 -46 -75 0 -18
-4 -20 -30 -14 -22 5 -40 1 -66 -15 -38 -24 -35 -24 -178 21 -16 5 -51 9 -77
9 -73 0 -59 18 19 24 114 10 186 25 211 43 26 20 94 144 115 213 8 25 17 52
21 61 7 18 -5 22 -150 44 -49 8 -99 16 -110 19 -11 2 -42 9 -70 16 -121 27
-306 94 -417 150 -58 30 -210 127 -243 155 -50 43 -108 99 -145 141 -117 129
-215 335 -246 517 -17 100 -17 111 -1 210 9 58 24 118 32 133 8 16 15 34 15
40 0 6 19 37 41 68 37 52 40 60 29 81 -15 29 -1 48 105 143 90 82 175 132 236
139 40 5 53 12 79 44 50 62 173 85 203 38 15 -24 39 -24 115 0 167 54 289 183
326 344 16 68 22 178 10 190 -3 3 -27 -3 -52 -14 -79 -34 -189 -59 -261 -59
-115 0 -211 26 -315 87 -29 17 -109 6 -168 -23 -25 -13 -74 -46 -107 -74 -33
-27 -66 -50 -74 -50 -18 0 -39 47 -32 70 4 13 -5 26 -31 46 -38 30 -57 64 -48
89 4 8 38 24 78 36 39 11 80 24 91 29 19 8 55 18 159 44 28 7 50 18 51 27 1 8
5 37 9 66 12 98 69 194 143 246 54 37 149 73 216 81 l57 7 0 60 0 59 -43 0
c-24 0 -48 5 -54 11 -8 8 -17 8 -33 -1 -30 -16 -86 -4 -105 23 -24 34 -18 65
20 104 19 20 35 41 35 48 0 40 89 67 138 42 18 -9 35 -11 43 -6 8 5 33 9 56 9
34 0 46 -5 58 -24 11 -16 22 -22 35 -19 15 4 33 -8 65 -43 25 -27 48 -59 51
-71 7 -27 -22 -90 -45 -98 -9 -3 -23 -25 -30 -52 -8 -27 -16 -53 -18 -60 -3
-6 13 -14 38 -18 62 -11 187 -66 268 -120 274 -180 317 -440 155 -932 -24 -73
-44 -134 -44 -136 0 -2 43 -3 95 -4 75 0 104 -5 140 -22 26 -12 73 -23 108
-26 79 -5 106 -15 155 -59 26 -24 53 -37 83 -42 45 -7 99 -49 99 -76 0 -7 22
-23 48 -35 60 -28 121 -86 128 -123 4 -19 18 -34 45 -50 45 -24 286 -196 309
-219 24 -23 149 -114 229 -166 l73 -47 26 24 c129 114 202 237 237 401 37 169
-5 310 -107 363 -32 16 -41 18 -33 5 3 -6 6 -45 7 -88 0 -62 -4 -88 -21 -120
-21 -42 -86 -113 -103 -113 -5 0 -34 -16 -63 -36 -76 -50 -142 -56 -220 -20
-32 14 -72 26 -91 26 -18 0 -44 4 -57 9 -40 15 -95 78 -107 120 -5 21 -17 45
-26 52 -9 8 -26 34 -36 59 -17 38 -19 58 -13 135 8 124 21 167 63 215 28 33
32 44 21 51 -22 13 -113 22 -158 14 l-41 -7 0 67 c0 63 11 102 33 116 14 9
-97 114 -165 156 -33 21 -58 43 -58 53 0 9 29 40 65 69 41 33 65 60 65 73 0
36 -60 133 -126 206 -35 38 -64 77 -64 85 0 36 77 66 172 67 l47 0 3 98 c3 92
-1 156 -18 264 -5 40 -4 49 10 54 16 6 108 -13 147 -30 14 -6 17 5 24 86 7 94
27 200 47 251 9 24 15 27 59 27 33 0 69 -9 108 -28 l59 -28 45 52 c49 55 205
164 235 164 23 0 83 -62 114 -117 l24 -42 47 30 c27 16 69 38 95 48 71 29 182
83 188 92 11 18 34 8 49 -21z m-1547 -4089 c29 -40 77 -137 92 -186 6 -22 14
-47 16 -55 3 -8 5 -16 5 -17 0 -2 4 -17 9 -35 5 -17 14 -76 20 -131 13 -130
-1 -259 -36 -328 -34 -69 -92 -131 -118 -127 -12 1 -26 -1 -32 -5 -17 -10
-107 92 -131 148 -59 143 -47 355 35 585 23 68 93 180 112 180 3 0 16 -13 28
-29z m470 -156 c6 -77 -13 -192 -53 -310 -69 -205 -169 -344 -280 -391 -48
-20 -49 -19 -24 24 27 43 32 53 56 107 15 33 18 67 18 185 0 80 -4 172 -8 206
l-8 61 71 59 c82 69 200 138 214 124 5 -5 11 -34 14 -65z m-936 41 c40 -17
136 -88 197 -145 32 -30 41 -46 36 -58 -13 -35 -26 -209 -19 -278 8 -95 30
-159 76 -228 22 -33 37 -61 34 -65 -12 -11 -109 44 -155 88 -57 55 -79 86
-125 178 -70 138 -123 356 -112 452 2 14 4 35 5 48 1 26 15 28 63 8z m1326
-44 c20 -13 -20 -152 -75 -261 -115 -231 -290 -392 -442 -407 -68 -8 -81 3
-47 37 49 49 156 243 156 281 0 8 4 18 9 24 8 8 19 47 40 146 11 52 19 60 124
112 124 62 206 86 235 68z m-1597 -58 c46 -21 102 -50 124 -65 36 -24 42 -34
54 -90 21 -94 55 -189 100 -280 37 -73 91 -154 115 -170 4 -4 6 -11 3 -16 -12
-19 -139 7 -197 39 -103 59 -237 215 -314 365 -34 68 -76 197 -76 236 l0 30
53 -6 c30 -3 91 -22 138 -43z m2044 -23 c8 -14 -23 -87 -69 -160 -89 -142
-246 -287 -384 -356 -63 -31 -90 -38 -157 -43 -53 -3 -89 0 -104 7 -22 12 -21
14 47 85 99 104 171 216 225 348 11 25 28 43 54 56 43 22 163 59 208 65 62 8
174 7 180 -2z m-2505 -11 c59 -11 102 -24 175 -50 65 -24 95 -45 95 -67 0 -23
76 -165 129 -241 29 -40 76 -97 106 -128 30 -30 55 -59 55 -63 0 -10 -60 -21
-110 -21 -50 0 -123 24 -199 66 -36 20 -68 39 -71 43 -3 3 -23 20 -45 36 -105
78 -272 284 -290 358 -4 15 -11 29 -15 32 -5 3 -6 14 -3 25 5 17 13 20 67 19
33 0 81 -4 106 -9z m2939 -16 c38 -8 39 -24 7 -81 -79 -137 -252 -311 -372
-373 -27 -14 -51 -27 -54 -30 -3 -3 -25 -14 -50 -25 -33 -15 -66 -20 -135 -20
-83 0 -185 20 -185 36 0 4 12 14 26 24 113 74 276 250 332 361 24 46 42 56
154 83 119 28 215 37 277 25z m-3294 -34 c142 -32 149 -36 203 -123 59 -97
164 -214 260 -292 40 -32 69 -62 64 -67 -4 -4 -45 -15 -90 -24 -78 -16 -88
-16 -153 0 -161 39 -358 184 -488 359 -50 68 -87 145 -74 157 23 23 152 18
278 -10z m3772 -84 l32 -16 -21 -38 c-30 -51 -139 -158 -219 -215 -169 -120
-392 -193 -481 -158 -13 5 -44 17 -70 26 -27 9 -48 20 -48 24 0 4 26 25 58 48
108 76 219 184 272 265 17 25 43 51 58 57 83 33 360 38 419 7z m-4133 -10 c38
-8 72 -18 76 -23 4 -4 27 -35 53 -69 63 -84 180 -197 249 -242 32 -20 58 -41
58 -45 0 -4 -21 -17 -47 -29 -38 -18 -67 -22 -143 -23 -85 0 -104 3 -179 34
-151 60 -270 140 -371 247 -62 65 -90 106 -90 128 0 10 19 18 58 26 31 7 62
14 67 16 20 8 202 -6 269 -20z m2918 -517 c74 -53 148 -186 162 -291 5 -45 4
-48 -18 -48 -46 0 -157 95 -220 189 -31 45 -36 61 -36 110 0 32 3 61 7 65 12
11 74 -4 105 -25z m-477 -63 c37 -37 57 -69 75 -116 13 -36 26 -69 30 -75 22
-32 44 -234 28 -250 -26 -26 -157 88 -231 201 -71 109 -90 183 -66 255 19 55
24 58 72 46 29 -7 58 -26 92 -61z m-1515 7 c0 -96 -66 -195 -181 -272 -82 -55
-99 -54 -92 2 13 102 80 237 143 287 42 33 55 38 98 39 l32 1 0 -57z m1758 11
c33 -22 85 -109 111 -184 26 -79 40 -214 22 -225 -17 -10 -84 39 -143 105
-100 112 -142 244 -103 321 l16 29 37 -15 c20 -9 47 -23 60 -31z m-1228 -19
c18 -64 8 -125 -35 -212 -52 -106 -221 -279 -253 -259 -18 11 -20 89 -6 160
34 165 113 298 199 337 65 30 80 26 95 -26z m-292 10 c7 -14 12 -49 12 -77 0
-94 -97 -250 -202 -325 -40 -29 -47 -31 -58 -18 -22 26 -4 153 35 250 39 96
81 149 140 176 53 24 60 24 73 -6z m767 -12 c19 -21 44 -63 56 -93 18 -48 20
-69 16 -165 -3 -73 -12 -133 -27 -180 -24 -77 -64 -160 -80 -170 -47 -29 -140
225 -140 382 0 36 8 91 17 121 18 56 84 142 109 142 7 0 29 -17 49 -37z m211
8 c52 -37 67 -62 98 -157 21 -64 26 -98 26 -185 0 -98 -11 -161 -31 -183 -10
-11 -83 64 -124 129 -46 74 -65 133 -65 205 0 36 -4 80 -10 99 -8 27 -6 43 10
78 23 52 41 55 96 14z m-452 -37 c43 -85 25 -213 -49 -353 -39 -73 -117 -165
-135 -159 -43 14 -54 218 -19 345 12 43 27 89 34 103 27 51 109 114 140 106 6
-1 19 -20 29 -42z"/>
<path d="M5354 6898 c-87 -65 -136 -150 -142 -246 -4 -62 -4 -64 19 -60 21 3
24 9 26 62 3 73 33 137 86 179 l38 31 25 -26 c18 -18 28 -40 31 -72 5 -36 9
-46 22 -44 33 7 7 118 -42 181 -18 22 -27 22 -63 -5z"/>
<path d="M4951 6719 c-19 -88 -14 -278 9 -353 12 -36 24 -66 28 -66 4 0 12 8
18 18 9 14 7 34 -12 91 -26 81 -31 170 -12 232 6 22 14 39 17 39 25 -2 89 -64
112 -108 24 -44 29 -49 34 -31 19 59 -58 163 -162 217 -20 11 -22 9 -32 -39z"/>
<path d="M5917 6709 c-44 -10 -80 -31 -124 -73 l-33 -30 22 -23 c12 -13 26
-23 31 -23 5 0 33 24 61 53 81 85 171 97 275 39 58 -32 101 -63 101 -73 0 -19
-168 -89 -234 -98 -37 -6 -70 -12 -73 -15 -3 -3 5 -21 17 -41 35 -57 18 -110
-48 -144 -57 -30 -151 38 -174 125 -14 51 -35 53 -30 3 12 -110 95 -192 209
-204 82 -10 121 34 132 149 l6 60 58 13 c32 7 78 26 102 43 40 28 115 106 115
120 0 3 -46 29 -102 58 -132 65 -219 83 -311 61z"/>
<path d="M4748 6373 c-5 -115 9 -200 48 -274 24 -47 124 -112 124 -80 0 5 -26
36 -58 68 -62 62 -82 107 -82 184 0 70 10 77 63 46 24 -14 58 -42 75 -62 34
-38 42 -42 42 -22 0 25 -70 95 -135 136 -35 23 -67 41 -70 41 -3 0 -6 -17 -7
-37z"/>
<path d="M3221 6125 c-68 -19 -131 -59 -159 -99 -24 -35 -47 -119 -39 -140 3
-8 27 -24 54 -36 47 -21 68 -40 55 -50 -14 -10 -94 -111 -91 -114 19 -13 86
-36 140 -46 107 -21 291 15 420 80 21 11 41 20 43 20 3 0 13 -17 22 -37 26
-59 24 -240 -4 -321 -34 -100 -71 -159 -141 -225 -71 -67 -165 -121 -276 -158
-38 -12 -74 -26 -78 -29 -14 -12 81 -100 129 -120 58 -25 66 -25 113 5 22 13
52 27 68 31 15 4 33 10 39 15 5 5 48 11 94 15 77 7 86 10 109 37 66 79 128
183 151 253 7 21 16 44 20 49 8 11 20 57 51 205 22 101 22 208 0 288 -14 53
-65 155 -99 200 -44 58 -176 143 -244 157 -18 4 -38 12 -45 17 -22 18 -272 20
-332 3z m214 -179 c40 -17 42 -24 15 -58 -38 -49 -108 -68 -189 -52 -51 10
-37 61 29 107 30 21 98 22 145 3z"/>
<path d="M4615 6008 c16 -55 67 -146 101 -180 38 -40 128 -76 158 -65 27 11 1
45 -39 53 -57 10 -114 59 -142 120 -13 29 -22 58 -18 64 9 15 66 12 115 -5 59
-21 63 -10 6 15 -33 14 -70 20 -118 20 -67 0 -69 -1 -63 -22z"/>
<path d="M6620 5845 c-77 -16 -131 -46 -178 -100 -46 -53 -82 -148 -82 -220 0
-25 -4 -45 -9 -45 -4 0 -39 25 -77 55 -38 31 -94 68 -124 83 -49 24 -66 27
-160 27 -94 0 -109 -2 -140 -24 -62 -42 -110 -107 -148 -200 -25 -61 -28 -97
-9 -116 11 -10 15 -7 26 19 58 140 108 208 185 249 31 16 59 22 116 22 65 0
82 -4 129 -30 30 -17 89 -61 130 -99 77 -69 79 -73 103 -177 6 -27 18 -51 30
-58 19 -12 20 -11 14 16 -16 69 -26 194 -20 258 14 149 67 228 179 265 37 12
68 20 70 18 3 -2 0 -31 -5 -64 -6 -32 -10 -124 -10 -203 0 -110 -4 -155 -17
-192 -29 -82 13 -93 54 -15 31 58 43 145 32 219 -11 71 -7 266 6 304 8 26 -1
27 -95 8z"/>
<path d="M4715 5674 c-33 -8 -64 -19 -69 -24 -16 -16 43 -88 92 -112 38 -18
65 -22 152 -23 127 -2 139 1 133 26 -5 17 -15 19 -102 19 -109 0 -176 17 -210
54 -17 18 -19 25 -9 33 21 17 78 30 148 32 35 1 67 4 69 7 11 10 -150 1 -204
-12z"/>
<path d="M5413 5643 c-38 -15 7 -188 59 -226 41 -30 45 -14 8 32 -22 26 -34
54 -37 83 -7 63 7 72 107 66 44 -3 80 -1 80 4 0 20 -86 48 -145 47 -33 0 -66
-3 -72 -6z"/>
<path d="M6025 5241 c-28 -21 -63 -55 -79 -75 l-28 -37 17 -67 c10 -37 22
-114 29 -171 l11 -104 30 43 c39 56 113 120 139 120 20 0 89 -35 148 -74 27
-18 27 -18 34 9 9 35 -16 60 -111 114 -50 29 -80 41 -94 36 -11 -3 -46 -32
-78 -63 l-58 -56 -7 69 c-4 39 -9 80 -10 92 -4 26 52 101 100 133 30 21 36 22
75 11 23 -7 65 -26 93 -41 49 -27 52 -28 57 -10 3 11 0 23 -7 28 -33 27 -168
82 -201 82 -5 0 -33 -18 -60 -39z"/>
<path d="M5193 5202 c-83 -30 -153 -95 -153 -143 0 -7 -10 -23 -22 -36 -27
-29 -27 -74 1 -128 12 -21 21 -49 21 -60 0 -28 34 -63 68 -71 15 -4 44 -16 65
-27 41 -21 44 -21 132 17 80 34 122 87 48 60 -74 -26 -156 -12 -197 35 -24 26
-32 107 -17 154 7 20 27 49 46 65 41 37 132 72 184 72 60 0 155 -34 211 -75
58 -43 130 -140 152 -205 34 -101 38 -119 38 -187 0 -127 -57 -314 -135 -443
-70 -117 -76 -130 -61 -136 31 -12 53 4 99 71 104 149 151 281 165 453 20 243
-55 417 -229 534 -65 43 -132 60 -254 65 -88 3 -120 0 -162 -15z"/>
<path d="M6780 5203 c-63 -22 -145 -78 -184 -127 -53 -64 -106 -183 -121 -266
-9 -48 21 -38 33 13 19 73 88 200 132 244 41 41 148 103 177 103 18 0 16 -17
-6 -82 -10 -31 -24 -82 -31 -114 -6 -33 -22 -94 -36 -136 -29 -94 -29 -90 -1
-86 19 3 26 17 49 103 15 55 38 152 52 215 13 63 27 123 31 133 6 14 2 17 -21
16 -16 0 -49 -8 -74 -16z"/>
<path d="M3021 5017 c-13 -7 -30 -22 -38 -33 -12 -20 -10 -26 27 -73 42 -53
126 -115 141 -105 16 10 9 36 -20 73 -33 42 -61 94 -61 114 0 26 -23 37 -49
24z"/>
<path d="M4000 4800 c0 -103 3 -129 13 -121 6 6 27 22 45 37 17 14 32 31 32
38 0 7 11 22 24 34 30 25 45 90 25 103 -13 8 -49 19 -111 33 l-28 6 0 -130z"/>
<path d="M2813 4910 c-33 -14 -48 -48 -29 -68 13 -16 87 -55 171 -93 60 -26
170 -57 179 -49 13 13 -1 39 -26 50 -26 10 -90 55 -170 117 -58 45 -91 57
-125 43z"/>
<path d="M4246 4817 c-6 -34 -56 -120 -100 -173 -14 -17 -51 -44 -81 -60 -54
-28 -71 -52 -63 -88 3 -14 6 -14 35 1 131 72 193 121 193 154 0 11 15 36 33
56 54 62 73 125 41 137 -36 14 -52 6 -58 -27z"/>
<path d="M2677 4752 l-48 -49 29 -31 c29 -31 71 -48 95 -39 8 3 21 31 30 64
l17 58 -25 23 c-15 12 -32 22 -38 22 -7 0 -34 -22 -60 -48z"/>
<path d="M4450 4747 c0 -26 -59 -148 -85 -177 -9 -10 -29 -23 -44 -29 -15 -7
-27 -20 -28 -31 -3 -33 -51 -70 -92 -70 -11 0 -37 -11 -57 -25 -24 -16 -51
-25 -78 -25 -48 -1 -72 -16 -71 -47 0 -33 10 -36 45 -15 23 14 43 18 70 15 63
-9 193 66 226 128 8 16 19 29 25 29 25 0 73 50 100 104 30 60 37 113 19 147
-14 26 -30 24 -30 -4z"/>
<path d="M6082 4700 c-71 -32 -112 -69 -112 -100 l0 -28 68 34 c102 51 116 52
154 12 18 -18 38 -42 44 -53 11 -19 11 -19 23 3 10 18 8 28 -13 60 -29 46 -81
92 -104 92 -9 0 -36 -9 -60 -20z"/>
<path d="M6641 4640 c-54 -4 -65 -8 -72 -27 -8 -22 -7 -22 77 -16 62 4 84 3
84 -6 0 -29 -144 -286 -208 -371 l-34 -45 24 -6 c13 -3 29 -1 37 5 25 19 84
121 152 261 38 77 76 152 86 167 9 15 15 29 13 31 -10 9 -98 13 -159 7z"/>
<path d="M4600 4577 c-25 -102 -79 -170 -168 -216 -21 -11 -44 -27 -52 -36
-22 -26 -134 -84 -181 -94 -24 -5 -69 -19 -99 -30 -30 -12 -65 -21 -77 -21
-21 0 -23 -5 -23 -46 0 -39 3 -45 17 -40 9 4 35 11 58 16 23 5 54 16 71 25 16
8 47 15 69 15 65 0 131 30 189 86 30 28 75 61 101 74 28 14 58 39 76 64 15 22
41 59 57 81 50 69 50 124 0 157 -25 16 -25 16 -38 -35z"/>
<path d="M2611 4587 c-25 -49 -44 -165 -43 -262 2 -252 111 -464 332 -646 56
-47 146 -109 157 -109 3 0 27 -13 52 -28 54 -33 250 -112 278 -112 10 0 23 -4
29 -9 17 -17 280 -66 404 -76 l95 -8 -51 49 c-47 45 -110 119 -173 202 -18 25
-32 32 -57 32 -48 0 -78 14 -123 59 -21 21 -50 42 -63 46 -56 17 -108 61 -133
111 -14 28 -25 56 -25 62 0 6 -13 13 -30 17 -34 8 -76 55 -110 123 -13 26 -36
62 -51 80 -48 54 -62 92 -62 157 1 57 28 135 54 151 13 8 11 24 -3 24 -35 0
-88 23 -114 49 -26 26 -34 29 -76 24 -36 -4 -56 -1 -88 16 -22 11 -57 21 -78
21 -23 0 -51 9 -73 24 l-36 25 -12 -22z"/>
<path d="M3244 4510 c-37 -24 -77 -107 -72 -151 l3 -29 40 22 c32 18 56 22
122 23 l83 0 0 68 c0 63 -2 68 -26 77 -43 17 -116 12 -150 -10z"/>
<path d="M4737 4433 c-46 -73 -45 -78 25 -103 35 -13 77 -29 93 -36 145 -64
329 -113 358 -97 11 6 -9 20 -108 73 -44 24 -132 75 -195 113 -63 38 -123 73
-132 78 -14 8 -22 2 -41 -28z"/>
<path d="M5986 4426 c-58 -11 -60 -12 -74 -54 -17 -52 -10 -64 18 -29 16 20
33 27 76 33 63 7 79 -2 116 -68 12 -21 24 -38 27 -38 14 0 30 53 21 69 -14 27
-98 101 -112 100 -7 -1 -40 -6 -72 -13z"/>
<path d="M3285 4279 c-56 -22 -105 -69 -105 -100 0 -11 9 -38 20 -60 l21 -40
45 50 c41 46 147 111 181 111 17 0 17 11 -3 38 -20 29 -88 29 -159 1z"/>
<path d="M4617 4264 c-13 -27 -15 -40 -7 -49 10 -12 129 -52 250 -85 230 -63
498 -100 650 -90 l75 5 -125 23 c-69 13 -154 30 -190 37 -169 34 -430 114
-548 167 -35 15 -69 28 -76 28 -7 0 -20 -16 -29 -36z"/>
<path d="M5820 4164 c-52 -72 -69 -101 -63 -108 4 -3 22 -6 42 -6 20 0 51 -9
69 -20 29 -18 31 -22 21 -43 -6 -12 -64 -74 -128 -137 -101 -101 -226 -197
-346 -265 -10 -6 -16 -16 -14 -23 9 -27 220 93 299 170 58 56 240 254 258 279
15 22 8 26 -85 50 -29 7 -53 18 -53 25 0 7 9 29 21 48 15 25 28 36 45 36 25 0
104 -24 142 -42 24 -13 50 1 38 20 -10 16 -108 50 -163 58 l-48 6 -35 -48z"/>
<path d="M3425 4152 c-33 -11 -70 -36 -109 -73 l-60 -56 28 -35 c40 -53 50
-53 85 1 17 27 53 70 81 97 36 36 49 55 44 67 -7 20 -5 20 -69 -1z"/>
<path d="M4592 4093 c2 -19 12 -32 32 -42 57 -27 225 -80 377 -119 276 -71
307 -76 434 -77 102 0 129 3 180 23 33 13 73 33 88 46 l29 23 -69 7 c-37 3
-140 13 -228 21 -139 13 -226 25 -472 65 -50 8 -87 16 -267 61 -104 25 -108
25 -104 -8z"/>
<path d="M6327 4094 c-14 -15 -6 -22 53 -43 33 -12 60 -28 60 -35 0 -7 -41
-49 -91 -92 -50 -43 -97 -84 -103 -89 -6 -6 -44 -34 -84 -64 -65 -48 -81 -71
-49 -71 16 0 136 80 217 146 82 65 200 179 200 192 0 12 -18 20 -90 39 -84 22
-104 25 -113 17z"/>
<path d="M3469 3992 c-32 -33 -61 -72 -65 -86 -9 -39 2 -71 32 -84 29 -14 44
-8 44 16 0 20 30 80 68 135 19 29 23 43 16 55 -20 30 -36 24 -95 -36z"/>
<path d="M4590 3933 c1 -28 7 -42 23 -54 28 -19 152 -66 350 -131 148 -48 155
-50 268 -49 93 0 127 4 168 21 98 38 129 70 68 70 -18 0 -93 9 -167 19 -117
17 -186 30 -375 71 -55 12 -259 67 -312 84 -21 7 -23 4 -23 -31z"/>
<path d="M3589 3913 c-32 -48 -62 -130 -56 -147 6 -14 67 -46 89 -46 10 0 14
21 16 83 1 45 3 95 5 112 3 45 -25 44 -54 -2z"/>
<path d="M4590 3755 c0 -45 0 -45 54 -70 30 -14 59 -25 65 -25 5 0 22 -7 38
-15 61 -32 171 -68 236 -78 73 -11 196 1 269 26 56 20 54 24 -14 31 -35 4 -76
11 -93 16 -16 5 -64 17 -105 26 -84 18 -213 58 -340 103 -47 17 -91 31 -97 31
-9 0 -13 -16 -13 -45z"/>
<path d="M5911 3666 c-10 -11 -8 -16 8 -21 25 -8 71 -44 71 -56 0 -12 -149
-83 -220 -105 -30 -9 -101 -19 -157 -22 -60 -3 -103 -9 -103 -15 0 -12 213 -1
238 12 10 5 38 11 63 15 76 11 249 85 249 106 0 12 -111 100 -126 100 -6 0
-17 -6 -23 -14z"/>
<path d="M4592 3568 l3 -53 55 -7 c30 -3 102 -9 160 -13 l105 -6 -100 41 c-55
22 -109 45 -120 50 -28 13 -97 40 -102 40 -2 0 -3 -24 -1 -52z"/>
<path d="M4005 3390 l105 -105 103 -33 c57 -18 130 -39 163 -47 78 -19 216
-19 279 0 84 25 82 23 52 50 -34 32 -55 79 -60 135 l-4 45 -55 -3 c-31 -2 -74
4 -98 12 -29 10 -49 12 -61 5 -24 -13 -106 -11 -132 2 -11 7 -49 11 -84 10
-42 -1 -76 4 -100 15 -25 12 -63 18 -124 18 l-89 1 105 -105z"/>
<path d="M5700 3123 c-26 -10 -50 -36 -50 -55 0 -23 4 -23 40 3 22 17 37 20
66 16 56 -9 87 -46 87 -100 0 -76 -50 -132 -133 -148 l-35 -7 42 -1 c23 0 53
3 66 8 67 26 106 142 73 213 -26 55 -104 90 -156 71z"/>
</g>
</svg>
